<svg width="53" height="53" viewBox="0 0 53 53" fill="none" xmlns="http://www.w3.org/2000/svg">
<g clip-path="url(#clip0_1004_33)">
<mask id="mask0_1004_33" style="mask-type:luminance" maskUnits="userSpaceOnUse" x="0" y="0" width="53" height="53">
<path d="M53 0H0V53H53V0Z" fill="white"/>
</mask>
<g mask="url(#mask0_1004_33)">
<path d="M23.6297 13.5839C23.5859 13.5868 23.5417 13.5947 23.4983 13.6031C23.411 13.6202 23.3251 13.6457 23.2395 13.6849C23.154 13.7245 23.0705 13.7763 22.987 13.838C22.9036 13.8998 22.8226 13.9741 22.7412 14.058L22.6958 14.1055C22.6699 14.1289 22.644 14.1515 22.6181 14.1769C22.543 14.2495 22.4758 14.3225 22.4132 14.3947L4.31101 33.0578C4.22963 33.1417 4.15702 33.2252 4.09734 33.3103C4.03808 33.3955 3.98967 33.4806 3.95295 33.567C3.91622 33.6534 3.88993 33.7422 3.87533 33.8299C3.86072 33.9175 3.85905 34.006 3.86656 34.0953C3.87407 34.1846 3.89285 34.2722 3.92249 34.3628C3.95253 34.453 3.99343 34.5447 4.04559 34.6366C4.09692 34.7288 4.16036 34.8181 4.23547 34.9103C4.31018 35.0025 4.39531 35.099 4.49213 35.1929C4.59062 35.2884 4.69119 35.3715 4.78759 35.4453C4.88399 35.5184 4.97748 35.5827 5.07219 35.6331C5.16651 35.6836 5.26044 35.7212 5.35265 35.7496C5.44486 35.778 5.53629 35.7975 5.62644 35.8034C5.71654 35.8092 5.80585 35.803 5.89394 35.7863C5.98198 35.7696 6.06712 35.7412 6.15266 35.702C6.23863 35.6628 6.32334 35.6127 6.4072 35.5509C6.49068 35.4892 6.57371 35.417 6.65513 35.3331L23.7612 17.6987L35.3206 29.37C35.4028 29.453 35.485 29.526 35.5685 29.5878C35.6524 29.6495 35.7371 29.6996 35.823 29.7389C35.9086 29.7781 35.9963 29.8085 36.0839 29.8252C36.172 29.842 36.2613 29.8461 36.3514 29.8403C36.4415 29.8345 36.5308 29.8148 36.623 29.7865C36.7153 29.758 36.8092 29.7205 36.9035 29.67C36.9982 29.6195 37.0917 29.5577 37.1881 29.4847C37.2845 29.4113 37.3851 29.3261 37.4836 29.2302C37.5804 29.1362 37.6655 29.0424 37.7402 28.9497C37.8154 28.8575 37.8784 28.7661 37.9301 28.6739C37.9823 28.582 38.0232 28.4902 38.0532 28.4001C38.0833 28.31 38.1037 28.2219 38.1117 28.1326C38.1192 28.0437 38.1154 27.9552 38.1008 27.8672C38.0862 27.7795 38.0599 27.6927 38.0232 27.6063C37.9865 27.52 37.938 27.4327 37.8788 27.3476C37.8195 27.2625 37.7498 27.1786 37.6676 27.0951L24.9268 14.227C24.91 14.2103 24.8967 14.194 24.8792 14.1773C24.8713 14.1698 24.8633 14.1652 24.8554 14.1581L24.7582 14.0588C24.676 13.9757 24.5937 13.9006 24.5103 13.8389C24.4268 13.7771 24.3433 13.7254 24.2578 13.6857C24.1722 13.646 24.0863 13.621 23.999 13.6039C23.921 13.5885 23.8434 13.5822 23.7641 13.5847C23.7549 13.5843 23.7453 13.5851 23.7361 13.5847C23.7011 13.5835 23.6644 13.5814 23.6297 13.5839Z" fill="#9747FF"/>
<path d="M12.8418 17.254L12.3771 17.0411C11.335 16.5638 10.1034 17.0216 9.62612 18.0637L9.41329 18.5284C8.936 19.5704 9.39386 20.8021 10.4359 21.2793L10.9006 21.4921C11.9426 21.9694 13.1742 21.5116 13.6515 20.4696L13.8644 20.0049C14.3416 18.9629 13.8838 17.7312 12.8418 17.254Z" fill="#9747FF"/>
<path d="M11.6104 14.6135L12.1449 15.0167C13.3379 15.9166 15.0346 15.6791 15.9345 14.4861L16.3358 13.9541C17.2357 12.7611 16.9981 11.0645 15.8051 10.1646L15.2706 9.76133C14.0776 8.86141 12.381 9.09898 11.4811 10.292L11.0797 10.824C10.1798 12.017 10.4174 13.7136 11.6104 14.6135Z" fill="#9747FF"/>
<path d="M22.849 9.71344L23.6137 9.11165C25.3284 7.76226 25.6247 5.27828 24.2753 3.56353L23.6735 2.79882C22.3241 1.08406 19.8402 0.787857 18.1254 2.13724L17.3607 2.739C15.6459 4.08838 15.3497 6.57236 16.6991 8.28711L17.3008 9.05183C18.6502 10.7666 21.1342 11.0628 22.849 9.71344Z" fill="#9747FF"/>
<path d="M11.5393 23.2274C11.6766 23.2274 11.8073 23.234 11.9275 23.2487C12.0476 23.2632 12.1586 23.2858 12.2617 23.315C12.3648 23.3442 12.4583 23.3805 12.5443 23.4243C12.6302 23.4682 12.7087 23.5203 12.7771 23.5787C12.846 23.6372 12.9069 23.7027 12.9583 23.7762C13.0096 23.8492 13.0513 23.9285 13.0855 24.0161C13.1198 24.1037 13.1461 24.1989 13.1631 24.3011C13.1803 24.4034 13.189 24.514 13.189 24.6312V41.3826C13.189 41.4998 13.1803 41.6104 13.1631 41.7127C13.1461 41.8149 13.1198 41.9101 13.0855 41.9977C13.0513 42.0853 13.01 42.1667 12.9583 42.2397C12.9069 42.3128 12.846 42.3783 12.7771 42.4367C12.7083 42.4952 12.6302 42.5452 12.5443 42.589C12.4583 42.6329 12.3648 42.6713 12.2617 42.7005C12.1586 42.7301 12.0476 42.7502 11.9275 42.7647C11.8073 42.779 11.6766 42.7881 11.5393 42.7881C11.4046 42.7881 11.2777 42.779 11.1596 42.7647C11.0415 42.7505 10.933 42.731 10.8316 42.7005C10.7301 42.6708 10.6375 42.6329 10.5532 42.589C10.4689 42.5452 10.3921 42.4956 10.3245 42.4367C10.2569 42.3783 10.1985 42.3128 10.1476 42.2397C10.0971 42.1667 10.0541 42.0853 10.0203 41.9977C9.98647 41.9101 9.96184 41.8149 9.94476 41.7127C9.92808 41.6104 9.92096 41.4994 9.92096 41.3826V24.6312C9.92096 24.514 9.92763 24.4034 9.94476 24.3011C9.96145 24.1989 9.98647 24.1037 10.0203 24.0161C10.0541 23.9285 10.0971 23.8492 10.1476 23.7762C10.1981 23.7031 10.2569 23.6376 10.3245 23.5787C10.3921 23.5203 10.4689 23.4682 10.5532 23.4243C10.6375 23.3805 10.7301 23.3442 10.8316 23.315C10.933 23.2858 11.0415 23.2632 11.1596 23.2487C11.2777 23.234 11.4041 23.2274 11.5393 23.2274Z" fill="white"/>
<path d="M21.3915 24.8837C21.2613 24.8837 21.1311 24.8892 21.0013 24.9009C20.8712 24.9125 20.741 24.9313 20.6112 24.9547C20.481 24.978 20.3507 25.006 20.221 25.0411C20.0908 25.0761 19.9605 25.1174 19.8308 25.1642C19.7005 25.2109 19.5703 25.2635 19.4405 25.3215C19.3104 25.3799 19.1802 25.4434 19.0504 25.5135C18.9202 25.5836 18.79 25.6604 18.6602 25.7422C18.53 25.824 18.4018 25.9099 18.272 26.003C18.1348 26.0961 18.005 26.1962 17.886 26.3027C17.7671 26.4095 17.6565 26.523 17.556 26.6432C17.4554 26.7634 17.3644 26.8911 17.2822 27.025C17.2 27.1586 17.1282 27.2984 17.0643 27.4457C17.0005 27.593 16.9441 27.7466 16.8962 27.9072C16.8482 28.0679 16.8093 28.2357 16.7776 28.4097C16.7459 28.5837 16.7205 28.7652 16.7042 28.953C16.6883 29.1409 16.6804 29.3362 16.6804 29.5373V41.3726C16.6804 41.4902 16.6896 41.6017 16.7063 41.7048C16.723 41.8079 16.748 41.9034 16.7818 41.9915C16.8156 42.0799 16.8586 42.1617 16.9091 42.2352C16.9596 42.3087 17.0184 42.3746 17.086 42.4334C17.1536 42.4922 17.2304 42.5423 17.3147 42.5866C17.399 42.6308 17.4917 42.6692 17.5931 42.6988C17.6945 42.7285 17.803 42.7489 17.9207 42.7635C18.0388 42.7781 18.1652 42.7873 18.3005 42.7873C18.4352 42.7873 18.5621 42.7781 18.6802 42.7635C18.7983 42.7489 18.9089 42.7285 19.0103 42.6988C19.1117 42.6692 19.2044 42.6308 19.2887 42.5866C19.373 42.5423 19.4477 42.4922 19.5153 42.4334C19.5829 42.3746 19.6438 42.3087 19.6943 42.2352C19.7448 42.1617 19.7857 42.0799 19.8195 41.9915C19.8533 41.903 19.8779 41.8079 19.895 41.7048C19.9117 41.6017 19.9209 41.4902 19.9209 41.3726V30.2989C19.9209 30.1616 19.9297 30.0289 19.9468 29.9C19.9639 29.771 19.9902 29.6471 20.0244 29.5269C20.0586 29.4067 20.1025 29.2915 20.1538 29.1797C20.2051 29.0678 20.264 28.9593 20.3328 28.8562C20.3645 28.7974 20.4025 28.744 20.443 28.6922C20.4835 28.6409 20.5277 28.5921 20.5765 28.5478C20.6258 28.5036 20.6783 28.4639 20.736 28.4272C20.7935 28.3905 20.8553 28.3575 20.9212 28.3279C20.9876 28.2983 21.0598 28.2724 21.1349 28.2503C21.2096 28.2282 21.2889 28.209 21.372 28.1944C21.4554 28.1797 21.543 28.1693 21.6348 28.1622C21.7267 28.1547 21.823 28.1514 21.9236 28.1514H25.6028C25.7008 28.1514 25.7955 28.1547 25.8853 28.1622C25.975 28.1697 26.0601 28.1797 26.142 28.1944C26.2237 28.209 26.3013 28.2282 26.3748 28.2503C26.4483 28.2724 26.5167 28.2983 26.5818 28.3279C26.6469 28.3575 26.7082 28.3905 26.765 28.4272C26.8217 28.4639 26.8739 28.504 26.9223 28.5478C26.9707 28.5921 27.0158 28.6409 27.0559 28.6922C27.096 28.7435 27.1318 28.7974 27.1635 28.8562L27.1335 28.8283C27.212 28.946 27.2817 29.0641 27.3405 29.1842C27.3993 29.3044 27.4477 29.4259 27.487 29.5486C27.5262 29.6712 27.5558 29.7965 27.5755 29.9217C27.595 30.0469 27.6055 30.1717 27.6055 30.2989V41.3726C27.6055 41.4902 27.6122 41.6017 27.6293 41.7048C27.646 41.8079 27.6731 41.9034 27.7069 41.9915C27.7407 42.0799 27.7812 42.1617 27.8321 42.2352C27.8826 42.3087 27.9415 42.3746 28.009 42.4334C28.0767 42.4922 28.1535 42.5423 28.2377 42.5866C28.322 42.6308 28.4147 42.6692 28.5161 42.6988C28.6175 42.7285 28.7281 42.7489 28.8462 42.7635C28.9643 42.7781 29.0907 42.7873 29.226 42.7873C29.3607 42.7873 29.4876 42.7781 29.6057 42.7635C29.7238 42.7489 29.8323 42.7285 29.9333 42.6988C30.0347 42.6692 30.1274 42.6308 30.2117 42.5866C30.296 42.5423 30.3728 42.4922 30.4404 42.4334C30.508 42.3746 30.5664 42.3087 30.6173 42.2352C30.6678 42.1617 30.7108 42.0799 30.7446 41.9915C30.7784 41.903 30.803 41.8079 30.8201 41.7048C30.8368 41.6017 30.846 41.4902 30.846 41.3726V29.5373C30.846 29.3362 30.8368 29.1404 30.8201 28.953C30.8035 28.7652 30.778 28.5837 30.7446 28.4097C30.7116 28.2357 30.6715 28.0679 30.6215 27.9072C30.5718 27.7466 30.513 27.593 30.4466 27.4457C30.3803 27.2984 30.3072 27.159 30.2246 27.025C30.142 26.8915 30.0502 26.7634 29.9508 26.6432C29.8515 26.523 29.7435 26.409 29.6274 26.3027C29.5114 26.1958 29.3866 26.0961 29.2543 26.003C29.1195 25.9099 28.9847 25.8235 28.8512 25.7422C28.7177 25.6608 28.5845 25.5836 28.4522 25.5135C28.32 25.4434 28.1889 25.3799 28.0575 25.3215C27.926 25.2631 27.795 25.2105 27.6647 25.1642C27.5345 25.1174 27.4056 25.0761 27.2766 25.0411C27.1477 25.006 27.0204 24.978 26.8927 24.9547C26.765 24.9313 26.6373 24.9125 26.5108 24.9009C26.3844 24.8892 26.2588 24.8837 26.1336 24.8837H21.3915Z" fill="white"/>
<path d="M36.6569 19.0546C36.5221 19.0546 36.3952 19.0612 36.2771 19.0763C36.159 19.0909 36.0484 19.1138 35.947 19.143C35.8456 19.1727 35.753 19.209 35.6687 19.2532C35.5844 19.2975 35.5097 19.3496 35.4421 19.4085C35.3744 19.4673 35.3135 19.5332 35.263 19.6067C35.2125 19.6802 35.1716 19.7619 35.1379 19.8504C35.104 19.9389 35.0794 20.034 35.0623 20.1371C35.0456 20.2402 35.0364 20.3491 35.0364 20.4672V41.373C35.0364 41.4907 35.0456 41.6021 35.0623 41.7052C35.079 41.8083 35.104 41.9038 35.1379 41.9919C35.1716 42.0804 35.2121 42.1622 35.263 42.2356C35.3135 42.3091 35.3744 42.375 35.4421 42.4338C35.5097 42.4927 35.5839 42.5427 35.6687 42.587C35.753 42.6312 35.8456 42.6696 35.947 42.6992C36.0484 42.7289 36.159 42.7493 36.2771 42.7639C36.3952 42.7785 36.5217 42.7877 36.6569 42.7877C36.7917 42.7877 36.9186 42.7785 37.0367 42.7639C37.1548 42.7493 37.2633 42.7289 37.3643 42.6992C37.4657 42.6696 37.5583 42.6312 37.6426 42.587C37.7269 42.5427 37.8037 42.4927 37.8713 42.4338C37.9389 42.375 37.9974 42.3091 38.0482 42.2356C38.0987 42.1622 38.1417 42.0804 38.1755 41.9919C38.2094 41.9034 38.2339 41.8083 38.2511 41.7052C38.2678 41.6021 38.2769 41.4907 38.2769 41.373V28.151L43.9596 28.1514C44.0577 28.1514 44.1524 28.1547 44.2422 28.1622C44.3319 28.1697 44.4174 28.1797 44.4988 28.1944C44.5806 28.209 44.6582 28.2282 44.7317 28.2503C44.8051 28.2724 44.8736 28.2983 44.9387 28.3279C45.0038 28.3575 45.063 28.3905 45.1198 28.4272C45.1766 28.464 45.2308 28.504 45.2792 28.5478C45.3276 28.5921 45.3706 28.6409 45.4107 28.6922C45.4507 28.7436 45.4866 28.7974 45.5184 28.8562L45.4904 28.8283C45.5689 28.946 45.6364 29.0641 45.6953 29.1842C45.7541 29.3044 45.8046 29.4259 45.8443 29.5486C45.8835 29.6713 45.9131 29.7965 45.9327 29.9217C45.9524 30.0469 45.9607 30.1717 45.9607 30.2989V41.3726C45.9607 41.4902 45.9699 41.6017 45.9866 41.7048C46.0033 41.8079 46.0283 41.9034 46.0621 41.9915C46.0959 42.0799 46.1389 42.1617 46.1894 42.2352C46.2399 42.3087 46.2987 42.3746 46.3664 42.4334C46.4339 42.4922 46.5107 42.5423 46.595 42.5866C46.6793 42.6308 46.7719 42.6692 46.8734 42.6988C46.9748 42.7285 47.0833 42.7489 47.201 42.7635C47.3191 42.7782 47.4455 42.7873 47.5807 42.7873C47.7155 42.7873 47.842 42.7782 47.9605 42.7635C48.0786 42.7489 48.1892 42.7285 48.2906 42.6988C48.392 42.6692 48.4842 42.6308 48.5689 42.5866C48.6533 42.5423 48.7279 42.4922 48.7956 42.4334C48.8632 42.3746 48.9216 42.3087 48.9725 42.2352C49.023 42.1617 49.066 42.0799 49.0996 41.9915C49.1334 41.903 49.158 41.8079 49.1752 41.7048C49.1918 41.6017 49.2012 41.4902 49.2012 41.3726V29.5373C49.2012 29.3362 49.1943 29.1404 49.1776 28.9531C49.1609 28.7652 49.1354 28.5837 49.102 28.4097C49.0689 28.2357 49.0264 28.0679 48.9767 27.9072C48.927 27.7466 48.8703 27.593 48.8044 27.4457C48.738 27.2984 48.6629 27.159 48.5802 27.025C48.4976 26.8915 48.4058 26.7634 48.3064 26.6432C48.2071 26.523 48.1011 26.4091 47.9851 26.3027C47.8691 26.1958 47.7447 26.0961 47.612 26.003C47.4772 25.9099 47.3424 25.8235 47.2089 25.7422C47.0754 25.6604 46.9422 25.5836 46.8099 25.5135C46.6772 25.4434 46.5445 25.3799 46.4131 25.3215C46.2816 25.2631 46.1527 25.2105 46.0229 25.1642C45.8927 25.1174 45.7612 25.0762 45.6327 25.0411C45.5037 25.006 45.3764 24.9781 45.2487 24.9547C45.121 24.9313 44.9934 24.9125 44.8669 24.9009C44.7404 24.8892 44.6169 24.8837 44.4917 24.8837H38.2786V20.4672C38.2786 20.3495 38.2694 20.2402 38.2527 20.1371C38.2361 20.034 38.211 19.9385 38.1772 19.8504C38.1434 19.7619 38.1004 19.6802 38.0499 19.6067C37.9994 19.5332 37.9406 19.4673 37.873 19.4085C37.8054 19.3496 37.7286 19.2975 37.6443 19.2532C37.56 19.209 37.4674 19.1727 37.3659 19.143C37.2645 19.1134 37.156 19.0909 37.0384 19.0763C36.9202 19.0617 36.7917 19.0546 36.6569 19.0546Z" fill="white"/>
</g>
</g>
<defs>
<clipPath id="clip0_1004_33">
<rect width="53" height="53" fill="white"/>
</clipPath>
</defs>
</svg>
